<svg xmlns="http://www.w3.org/2000/svg" viewBox="0 0 1260 1024"><path d="M841.312098 815.419077a17.801846 17.801846 0 0 1 24.576 0c32.689231 34.973538 76.248615 58.604308 123.904 67.426461a71.286154 71.286154 0 0 1 64.827077 77.666462 72.231385 72.231385 0 0 1-79.79323 63.094154 72.152615 72.152615 0 0 1-62.621539-51.830154 215.512615 215.512615 0 0 0-68.686769-130.599385 16.699077 16.699077 0 0 1-2.205539-25.757538zM456.918252 3.308308A628.499692 628.499692 0 0 1 591.377329 3.938462a552.251077 552.251077 0 0 1 331.854769 153.993846c32.768 32.768 59.943385 70.419692 80.580924 111.53723 31.507692 62.227692 45.134769 131.544615 39.542153 200.861539l-3.150769-3.780923a73.964308 73.964308 0 0 0-89.245538-10.24c0.236308-4.568615 0.630154-9.452308 0.630154-14.336 0-46.473846-10.791385-91.844923-32.295385-134.616616a347.687385 347.687385 0 0 0-64.748308-89.481846c-69.238154-69.553231-166.675692-114.530462-274.353231-126.660923a528.068923 528.068923 0 0 0-112.64 0c-108.386462 11.421538-206.375385 55.926154-275.928615 125.873231a353.516308 353.516308 0 0 0-65.378461 89.009231 299.008 299.008 0 0 0 22.764307 308.775384c25.206154 36.391385 56.556308 68.214154 92.632616 94.129231a37.021538 37.021538 0 0 1 13.942153 41.826462l-7.640615 27.648-6.537846 24.733538-4.174769 15.044923-3.387077 13.705846a6.222769 6.222769 0 0 0 5.907692 6.301539c1.024 0 2.048-0.393846 4.253539-1.575385l3.938461-2.363077 91.844923-52.539077 3.072-1.496615a51.593846 51.593846 0 0 1 39.620923-4.096c24.103385 6.852923 48.915692 11.894154 73.885539 15.202462l11.18523 1.417846a504.123077 504.123077 0 0 0 205.824-19.928616 70.577231 70.577231 0 0 0 49.388308 73.885539 599.433846 599.433846 0 0 1-200.231384 33.949538c-55.138462 0.393846-110.119385-7.010462-163.209847-21.819077l-111.616 54.665846-37.415384 18.195693-2.363077 1.732923a41.905231 41.905231 0 0 1-38.912 1.024 38.596923 38.596923 0 0 1-21.425231-30.877539l-0.393846-3.938461 0.393846-3.702154c0.236308-1.575385 0.236308-3.150769 0.630154-4.726154l1.811692-5.12 15.753846-119.886769a614.084923 614.084923 0 0 1-95.547077-106.338462A379.510154 379.510154 0 0 1 42.040714 267.815385c20.873846-41.117538 48.364308-78.769231 81.447384-111.458462C208.32256 71.68 326.476406 17.486769 456.839483 3.465846l0.078769-0.078769z m679.620923 700.022154a74.043077 74.043077 0 0 1 102.793847-0.315077c28.435692 27.569231 28.593231 72.388923 0.315076 100.036923a73.176615 73.176615 0 0 1-32.610461 18.510769 224.964923 224.964923 0 0 0-134.065231 66.953846 17.723077 17.723077 0 0 1-23.867077 5.750154 16.699077 16.699077 0 0 1-2.599384-27.332923c35.918769-31.980308 60.100923-74.436923 68.923077-121.068308a69.868308 69.868308 0 0 1 21.031384-42.535384h0.078769z m-240.64-89.009231a17.723077 17.723077 0 0 1 24.497231 2.756923 16.620308 16.620308 0 0 1-1.181538 22.449231 215.906462 215.906462 0 0 0-69.316923 120.989538 72.231385 72.231385 0 0 1-79.95077 62.779077 73.491692 73.491692 0 0 1-43.559384-20.164923 69.080615 69.080615 0 0 1-0.866462-99.485539 72.704 72.704 0 0 1 33.083077-18.747076 224.728615 224.728615 0 0 0 135.955692-69.316924l1.339077-1.260307z m35.761231-110.670769a74.043077 74.043077 0 0 1 102.793846 0.078769c8.822154 8.664615 15.281231 19.377231 18.589539 31.113846 6.616615 49.939692 30.956308 96.177231 68.686769 130.520615a16.699077 16.699077 0 0 1 5.277538 23.473231 17.723077 17.723077 0 0 1-27.411692 2.363077 224.649846 224.649846 0 0 0-124.297846-67.111385 71.286154 71.286154 0 0 1-64.512-77.981538 70.104615 70.104615 0 0 1 20.873846-42.456615z" fill="#606266"/></svg>
